<?xml version="1.0" encoding="utf-8"?>
<svg version="1.1" id="圖層_1" xmlns="http://www.w3.org/2000/svg" x="0px" y="0px" width="644.38px" height="177.51px" viewBox="0 0 644.38 177.51" enable-background="new 0 0 644.38 177.51">
  <g>
    <g>
      <polygon fill-rule="evenodd" clip-rule="evenodd" fill="#008641" points="0,124.796 125.609,0 125.609,39.837 39.431,124.796 &#9;&#9;&#10;&#9;&#9;&#9;" style=""/>
      <polygon fill-rule="evenodd" clip-rule="evenodd" fill="#0056A8" points="47.561,124.796 172.357,0.406 172.763,124.796 &#10;&#9;&#9;&#9;134.958,124.796 134.552,77.642 86.585,124.796 &#9;&#9;" style=""/>
      <rect x="276.421" y="40.244" fill-rule="evenodd" clip-rule="evenodd" fill="#0056A8" width="28.861" height="84.552" style=""/>
      <path fill-rule="evenodd" clip-rule="evenodd" fill="#E60012" d="M308.535,18.292c0-9.851-8.035-17.886-17.886-17.886 c-9.852,0-17.886,8.035-17.886,17.886s8.035,17.886,17.886,17.886C300.5,36.179,308.535,28.144,308.535,18.292z" style=""/>
      <path fill-rule="evenodd" clip-rule="evenodd" fill="#0056A8" d="M462.467,105.63c-4.697,8.115-11.629,14.785-19.94,19.166h72.511 v-0.005c0.203,0.003,0.405,0.005,0.609,0.005c23.62,0,42.886-19.266,42.886-42.886c0-23.62-19.266-42.886-42.886-42.886 S472.761,58.29,472.761,81.91c0,6.439,1.432,12.55,3.992,18.04h22.488c-5.012-4.328-8.188-10.722-8.188-17.836 c0-12.986,10.591-23.577,23.577-23.577c12.985,0,23.577,10.591,23.577,23.577c0,12.85-10.371,23.352-23.171,23.571 c0-0.018-0.03-0.037-0.07-0.054H462.467z" style=""/>
      <path fill-rule="evenodd" clip-rule="evenodd" fill="#0056A8" d="M566.664,39.068h0.053v-0.044h41.41h0.269v0.003 c19.804,0.146,35.91,16.339,35.91,36.176c0,0.132-0.004,0.263-0.005,0.395h0.08v49.605h-28.26V68.625v-0.102h-0.001 c-0.053-4.772-3.821-8.683-8.538-8.964v-0.015h-0.542h-11.453v49.586c-0.021-0.008-0.041-0.014-0.062-0.021v16.076h-28.861V39.068 z" style=""/>
      <path fill-rule="evenodd" clip-rule="evenodd" fill="#0056A8" d="M181.259,80.386c-0.391-6.12,4.971-41.303,43.218-43.07 c23.409-0.39,36.954,18.868,37.347,20.947l-44.98,45.187c2.837,0.962,5.5,1.394,7.633,1.413 c2.935,0.118,22.548-0.941,24.31-24.007l19.612,0.001c-2.544,38.989-35.389,43.853-43.688,43.774 C216.804,124.826,182.472,119.257,181.259,80.386L181.259,80.386z M224.477,56.85c-22.04,1.647-24.114,22.357-23.605,24.005 c-0.235,3.099,0.94,6.905,1.526,8.238l30.299-30.36C231.425,57.87,227.979,56.947,224.477,56.85z" style=""/>
      <path fill-rule="evenodd" clip-rule="evenodd" fill="#0056A8" d="M313.496,0.366h29.713l-0.117,104.73l77.921,0.059 c3.954,0.471,21.766-3.588,22.607-23.122c0.02-20.123-17.402-24.126-23.019-24.065c-20.591,0.353-24.564,18.534-24.428,22.653 c-0.313,13.572,8.651,19.32,8.633,19.357l-24.369,0.059c-3.406-7.12-4.171-12.944-4.052-19.417 c3.443-39.658,39.891-43.423,43.981-42.364c37.775,0.823,44.078,35.186,43.218,43.776c-3.015,38.558-35.037,43.344-43.218,43.304 H313.496C313.496,125.337,313.26,0.366,313.496,0.366z" style=""/>
    </g>
    <g>
      <path d="M19.458,169.526c0.94,0.672,1.962,1.207,3.067,1.604l-1.411,2.705c-0.578-0.173-1.143-0.41-1.695-0.712 c-0.121-0.061-0.97-0.621-2.549-1.683c-1.242,0.544-2.618,0.815-4.127,0.815c-2.916,0-5.2-0.858-6.852-2.575 c-1.652-1.716-2.478-4.127-2.478-7.232c0-3.097,0.828-5.506,2.484-7.227c1.656-1.722,3.903-2.582,6.742-2.582 c2.812,0,5.042,0.86,6.69,2.582c1.647,1.721,2.471,4.13,2.471,7.227c0,1.639-0.229,3.079-0.686,4.321 C20.77,167.719,20.217,168.638,19.458,169.526z M16.379,167.365c0.491-0.578,0.86-1.276,1.106-2.097 c0.246-0.819,0.369-1.76,0.369-2.82c0-2.191-0.483-3.828-1.449-4.911c-0.966-1.082-2.23-1.624-3.791-1.624 c-1.562,0-2.827,0.544-3.798,1.631c-0.97,1.087-1.456,2.722-1.456,4.904c0,2.217,0.485,3.875,1.456,4.975 c0.971,1.101,2.198,1.65,3.682,1.65c0.552,0,1.074-0.091,1.565-0.271c-0.776-0.51-1.565-0.906-2.368-1.191l1.074-2.187 C14.028,165.855,15.231,166.503,16.379,167.365z" style="stroke-linejoin: round; stroke-linecap: round; fill: rgb(227, 227, 227);"/>
      <path d="M35.294,171.933v-2.058c-0.5,0.733-1.158,1.312-1.973,1.734c-0.815,0.422-1.676,0.634-2.582,0.634 c-0.923,0-1.751-0.203-2.484-0.608c-0.733-0.405-1.264-0.975-1.591-1.708c-0.328-0.732-0.492-1.746-0.492-3.041v-8.695h3.636 v6.314c0,1.933,0.067,3.117,0.201,3.553c0.133,0.436,0.377,0.78,0.731,1.035c0.354,0.254,0.802,0.381,1.346,0.381 c0.621,0,1.177-0.17,1.669-0.511c0.491-0.341,0.828-0.764,1.009-1.268c0.182-0.505,0.272-1.741,0.272-3.708v-5.797h3.636v13.742 H35.294z" style="stroke-linejoin: round; stroke-linecap: round; fill: rgb(227, 227, 227);"/>
      <path d="M46.626,162.384l-3.299-0.596c0.371-1.328,1.009-2.312,1.915-2.95s2.251-0.958,4.037-0.958 c1.622,0,2.829,0.192,3.623,0.576c0.793,0.384,1.352,0.871,1.676,1.462c0.323,0.592,0.485,1.676,0.485,3.255l-0.039,4.244 c0,1.208,0.058,2.099,0.175,2.672c0.116,0.573,0.334,1.188,0.653,1.844h-3.597c-0.095-0.241-0.211-0.6-0.35-1.074 c-0.06-0.215-0.104-0.357-0.129-0.427c-0.621,0.604-1.286,1.057-1.993,1.358c-0.707,0.302-1.462,0.453-2.264,0.453 c-1.415,0-2.53-0.384-3.345-1.151c-0.815-0.768-1.223-1.738-1.223-2.911c0-0.777,0.186-1.469,0.557-2.077 c0.371-0.608,0.891-1.074,1.559-1.397s1.632-0.606,2.892-0.848c1.699-0.319,2.877-0.616,3.532-0.893v-0.362 c0-0.699-0.172-1.197-0.518-1.495c-0.345-0.297-0.996-0.446-1.954-0.446c-0.647,0-1.152,0.128-1.514,0.382 C47.144,161.299,46.851,161.745,46.626,162.384z M51.491,165.333c-0.466,0.156-1.203,0.342-2.212,0.557 c-1.009,0.216-1.669,0.428-1.98,0.635c-0.474,0.336-0.711,0.763-0.711,1.28c0,0.51,0.189,0.949,0.569,1.32 c0.379,0.371,0.862,0.556,1.449,0.556c0.655,0,1.281-0.215,1.876-0.646c0.439-0.328,0.729-0.729,0.867-1.203 c0.095-0.311,0.142-0.901,0.142-1.773V165.333z" style="stroke-linejoin: round; stroke-linecap: round; fill: rgb(227, 227, 227);"/>
      <path d="M60.12,171.933v-18.969h3.636v18.969H60.12z" style="stroke-linejoin: round; stroke-linecap: round; fill: rgb(227, 227, 227);"/>
      <path d="M68.955,156.327v-3.363h3.636v3.363H68.955z M68.955,171.933V158.19h3.636v13.742H68.955z" style="stroke-linejoin: round; stroke-linecap: round; fill: rgb(227, 227, 227);"/>
      <path d="M84.091,158.19v2.898h-2.484v5.539c0,1.121,0.023,1.774,0.071,1.96c0.047,0.186,0.155,0.339,0.323,0.459 c0.168,0.121,0.373,0.182,0.615,0.182c0.336,0,0.824-0.116,1.462-0.35l0.311,2.821c-0.845,0.361-1.803,0.543-2.872,0.543 c-0.656,0-1.247-0.11-1.773-0.33c-0.526-0.22-0.912-0.505-1.158-0.854c-0.246-0.35-0.416-0.822-0.511-1.417 c-0.077-0.423-0.116-1.276-0.116-2.563v-5.991h-1.669v-2.898h1.669v-2.729l3.649-2.122v4.852H84.091z" style="stroke-linejoin: round; stroke-linecap: round; fill: rgb(227, 227, 227);"/>
      <path d="M86.366,158.19h3.869l3.287,9.757l3.209-9.757h3.765l-4.852,13.225l-0.867,2.394c-0.319,0.803-0.624,1.415-0.912,1.838 c-0.289,0.422-0.621,0.766-0.997,1.028c-0.375,0.263-0.837,0.468-1.384,0.615c-0.548,0.146-1.167,0.22-1.857,0.22 c-0.699,0-1.384-0.073-2.057-0.22l-0.324-2.848c0.569,0.112,1.083,0.169,1.54,0.169c0.846,0,1.471-0.248,1.876-0.744 c0.405-0.496,0.716-1.128,0.932-1.896L86.366,158.19z" style="stroke-linejoin: round; stroke-linecap: round; fill: rgb(227, 227, 227);"/>
      <path d="M102.24,168.297h3.636v2.601c0,1.053-0.09,1.883-0.271,2.491c-0.181,0.607-0.524,1.153-1.029,1.637 c-0.504,0.482-1.145,0.862-1.921,1.139l-0.712-1.501c0.733-0.242,1.255-0.574,1.566-0.996c0.311-0.423,0.474-1.001,0.492-1.734 h-1.76V168.297z" style="stroke-linejoin: round; stroke-linecap: round; fill: rgb(227, 227, 227);"/>
      <path d="M116.964,171.933v-18.969h3.83v18.969H116.964z" style="stroke-linejoin: round; stroke-linecap: round; fill: rgb(227, 227, 227);"/>
      <path d="M138.389,171.933h-3.636v-7.014c0-1.483-0.078-2.442-0.233-2.879c-0.155-0.436-0.408-0.773-0.757-1.016 c-0.35-0.241-0.77-0.362-1.262-0.362c-0.63,0-1.195,0.173-1.695,0.518c-0.5,0.346-0.844,0.803-1.029,1.372 c-0.186,0.569-0.278,1.622-0.278,3.157v6.224h-3.636V158.19h3.377v2.02c1.199-1.553,2.708-2.33,4.529-2.33 c0.802,0,1.535,0.146,2.2,0.434c0.664,0.289,1.167,0.658,1.507,1.106c0.341,0.449,0.578,0.958,0.712,1.527 c0.133,0.569,0.2,1.384,0.2,2.445V171.933z" style="stroke-linejoin: round; stroke-linecap: round; fill: rgb(227, 227, 227);"/>
      <path d="M156.049,171.933h-3.636v-7.014c0-1.483-0.078-2.442-0.233-2.879c-0.155-0.436-0.408-0.773-0.757-1.016 c-0.35-0.241-0.77-0.362-1.262-0.362c-0.63,0-1.195,0.173-1.695,0.518c-0.5,0.346-0.844,0.803-1.029,1.372 c-0.186,0.569-0.278,1.622-0.278,3.157v6.224h-3.636V158.19h3.377v2.02c1.199-1.553,2.708-2.33,4.529-2.33 c0.802,0,1.535,0.146,2.2,0.434c0.664,0.289,1.167,0.658,1.507,1.106c0.341,0.449,0.578,0.958,0.712,1.527 c0.133,0.569,0.2,1.384,0.2,2.445V171.933z" style="stroke-linejoin: round; stroke-linecap: round; fill: rgb(227, 227, 227);"/>
      <path d="M160.369,164.868c0-1.208,0.297-2.377,0.893-3.507c0.595-1.13,1.438-1.993,2.529-2.588 c1.091-0.596,2.31-0.894,3.655-0.894c2.079,0,3.783,0.676,5.111,2.025c1.328,1.351,1.993,3.056,1.993,5.117 c0,2.079-0.671,3.803-2.012,5.17s-3.03,2.051-5.065,2.051c-1.26,0-2.461-0.285-3.604-0.854c-1.143-0.57-2.012-1.404-2.607-2.504 C160.666,167.785,160.369,166.446,160.369,164.868z M164.095,165.062c0,1.363,0.324,2.407,0.97,3.132 c0.647,0.725,1.445,1.087,2.394,1.087c0.949,0,1.745-0.362,2.387-1.087s0.964-1.777,0.964-3.157c0-1.346-0.321-2.381-0.964-3.105 s-1.438-1.087-2.387-1.087c-0.949,0-1.747,0.362-2.394,1.087C164.419,162.655,164.095,163.699,164.095,165.062z" style="stroke-linejoin: round; stroke-linecap: round; fill: rgb(227, 227, 227);"/>
      <path d="M182.648,171.933l-5.538-13.742h3.817l2.588,7.014l0.75,2.342c0.198-0.595,0.323-0.987,0.375-1.178 c0.121-0.388,0.25-0.775,0.389-1.164l2.613-7.014h3.74l-5.46,13.742H182.648z" style="stroke-linejoin: round; stroke-linecap: round; fill: rgb(227, 227, 227);"/>
      <path d="M197.797,162.384l-3.299-0.596c0.371-1.328,1.009-2.312,1.915-2.95s2.251-0.958,4.037-0.958 c1.622,0,2.829,0.192,3.623,0.576c0.793,0.384,1.352,0.871,1.676,1.462c0.323,0.592,0.485,1.676,0.485,3.255l-0.039,4.244 c0,1.208,0.058,2.099,0.175,2.672c0.116,0.573,0.334,1.188,0.653,1.844h-3.597c-0.095-0.241-0.211-0.6-0.35-1.074 c-0.06-0.215-0.104-0.357-0.129-0.427c-0.621,0.604-1.286,1.057-1.993,1.358c-0.707,0.302-1.462,0.453-2.264,0.453 c-1.415,0-2.53-0.384-3.345-1.151c-0.815-0.768-1.223-1.738-1.223-2.911c0-0.777,0.186-1.469,0.557-2.077 c0.371-0.608,0.891-1.074,1.559-1.397s1.632-0.606,2.892-0.848c1.699-0.319,2.877-0.616,3.532-0.893v-0.362 c0-0.699-0.172-1.197-0.518-1.495c-0.345-0.297-0.996-0.446-1.954-0.446c-0.647,0-1.152,0.128-1.514,0.382 C198.315,161.299,198.022,161.745,197.797,162.384z M202.663,165.333c-0.466,0.156-1.203,0.342-2.212,0.557 c-1.009,0.216-1.669,0.428-1.98,0.635c-0.474,0.336-0.711,0.763-0.711,1.28c0,0.51,0.189,0.949,0.569,1.32 c0.379,0.371,0.862,0.556,1.449,0.556c0.655,0,1.281-0.215,1.876-0.646c0.439-0.328,0.729-0.729,0.867-1.203 c0.095-0.311,0.142-0.901,0.142-1.773V165.333z" style="stroke-linejoin: round; stroke-linecap: round; fill: rgb(227, 227, 227);"/>
      <path d="M217.593,158.19v2.898h-2.484v5.539c0,1.121,0.023,1.774,0.071,1.96c0.047,0.186,0.155,0.339,0.323,0.459 c0.168,0.121,0.373,0.182,0.615,0.182c0.336,0,0.824-0.116,1.462-0.35l0.311,2.821c-0.845,0.361-1.803,0.543-2.872,0.543 c-0.656,0-1.247-0.11-1.773-0.33c-0.526-0.22-0.912-0.505-1.158-0.854c-0.246-0.35-0.416-0.822-0.511-1.417 c-0.077-0.423-0.116-1.276-0.116-2.563v-5.991h-1.669v-2.898h1.669v-2.729l3.649-2.122v4.852H217.593z" style="stroke-linejoin: round; stroke-linecap: round; fill: rgb(227, 227, 227);"/>
      <path d="M221.589,156.327v-3.363h3.636v3.363H221.589z M221.589,171.933V158.19h3.636v13.742H221.589z" style="stroke-linejoin: round; stroke-linecap: round; fill: rgb(227, 227, 227);"/>
      <path d="M229.583,164.868c0-1.208,0.297-2.377,0.893-3.507c0.595-1.13,1.438-1.993,2.529-2.588 c1.091-0.596,2.31-0.894,3.655-0.894c2.079,0,3.783,0.676,5.111,2.025c1.328,1.351,1.993,3.056,1.993,5.117 c0,2.079-0.671,3.803-2.012,5.17s-3.03,2.051-5.065,2.051c-1.26,0-2.461-0.285-3.604-0.854c-1.143-0.57-2.012-1.404-2.607-2.504 C229.88,167.785,229.583,166.446,229.583,164.868z M233.31,165.062c0,1.363,0.324,2.407,0.97,3.132 c0.647,0.725,1.445,1.087,2.394,1.087c0.949,0,1.745-0.362,2.387-1.087s0.964-1.777,0.964-3.157c0-1.346-0.321-2.381-0.964-3.105 s-1.438-1.087-2.387-1.087c-0.949,0-1.747,0.362-2.394,1.087C233.633,162.655,233.31,163.699,233.31,165.062z" style="stroke-linejoin: round; stroke-linecap: round; fill: rgb(227, 227, 227);"/>
      <path d="M260.583,171.933h-3.636v-7.014c0-1.483-0.078-2.442-0.233-2.879c-0.155-0.436-0.408-0.773-0.757-1.016 c-0.35-0.241-0.77-0.362-1.262-0.362c-0.63,0-1.195,0.173-1.695,0.518c-0.5,0.346-0.844,0.803-1.029,1.372 c-0.186,0.569-0.278,1.622-0.278,3.157v6.224h-3.636V158.19h3.377v2.02c1.199-1.553,2.708-2.33,4.529-2.33 c0.802,0,1.535,0.146,2.2,0.434c0.664,0.289,1.167,0.658,1.507,1.106c0.341,0.449,0.578,0.958,0.712,1.527 c0.133,0.569,0.2,1.384,0.2,2.445V171.933z" style="stroke-linejoin: round; stroke-linecap: round; fill: rgb(227, 227, 227);"/>
      <path d="M265.653,168.297h3.636v2.601c0,1.053-0.09,1.883-0.271,2.491c-0.181,0.607-0.524,1.153-1.029,1.637 c-0.504,0.482-1.145,0.862-1.921,1.139l-0.712-1.501c0.733-0.242,1.255-0.574,1.566-0.996c0.311-0.423,0.474-1.001,0.492-1.734 h-1.76V168.297z" style="stroke-linejoin: round; stroke-linecap: round; fill: rgb(227, 227, 227);"/>
      <path d="M280.494,171.933v-18.969h6.146c2.329,0,3.847,0.095,4.555,0.284c1.087,0.284,1.997,0.903,2.73,1.856 c0.733,0.954,1.1,2.186,1.1,3.694c0,1.165-0.211,2.144-0.634,2.938c-0.423,0.794-0.96,1.417-1.611,1.87 c-0.651,0.452-1.313,0.752-1.986,0.898c-0.914,0.182-2.238,0.272-3.972,0.272h-2.498v7.155H280.494z M284.324,156.173v5.383h2.097 c1.509,0,2.519-0.1,3.027-0.298c0.509-0.198,0.908-0.509,1.197-0.932c0.289-0.423,0.434-0.914,0.434-1.476 c0-0.689-0.203-1.259-0.608-1.708c-0.406-0.448-0.919-0.729-1.54-0.841c-0.457-0.086-1.376-0.129-2.756-0.129H284.324z" style="stroke-linejoin: round; stroke-linecap: round; fill: rgb(227, 227, 227);"/>
      <path d="M307.574,167.56l3.623,0.607c-0.466,1.329-1.201,2.34-2.206,3.034c-1.005,0.695-2.263,1.042-3.772,1.042 c-2.39,0-4.158-0.78-5.305-2.342c-0.906-1.251-1.359-2.829-1.359-4.736c0-2.277,0.596-4.061,1.786-5.351 c1.19-1.289,2.695-1.935,4.516-1.935c2.044,0,3.657,0.676,4.839,2.025c1.182,1.351,1.747,3.418,1.695,6.205h-9.109 c0.026,1.078,0.319,1.917,0.88,2.517c0.561,0.6,1.26,0.899,2.097,0.899c0.569,0,1.048-0.156,1.436-0.467 S307.375,168.249,307.574,167.56z M307.781,163.884c-0.026-1.052-0.297-1.852-0.815-2.399s-1.147-0.822-1.89-0.822 c-0.793,0-1.449,0.289-1.967,0.867s-0.772,1.363-0.763,2.354H307.781z" style="stroke-linejoin: round; stroke-linecap: round; fill: rgb(227, 227, 227);"/>
      <path d="M319.307,171.933h-3.636V158.19h3.377v1.954c0.578-0.923,1.098-1.531,1.559-1.824s0.985-0.44,1.572-0.44 c0.829,0,1.625,0.229,2.394,0.687l-1.126,3.17c-0.612-0.396-1.182-0.595-1.708-0.595c-0.509,0-0.94,0.14-1.294,0.42 c-0.354,0.28-0.632,0.787-0.834,1.521c-0.203,0.733-0.304,2.269-0.304,4.606V171.933z" style="stroke-linejoin: round; stroke-linecap: round; fill: rgb(227, 227, 227);"/>
      <path d="M326.02,158.19h2.019v-1.035c0-1.155,0.123-2.018,0.369-2.588c0.245-0.568,0.698-1.032,1.358-1.391 c0.66-0.357,1.494-0.537,2.504-0.537c1.035,0,2.049,0.155,3.041,0.466l-0.492,2.536c-0.578-0.138-1.135-0.207-1.669-0.207 c-0.526,0-0.904,0.123-1.133,0.369s-0.343,0.718-0.343,1.417v0.97h2.718v2.86h-2.718v10.882h-3.636v-10.882h-2.019V158.19z" style="stroke-linejoin: round; stroke-linecap: round; fill: rgb(227, 227, 227);"/>
      <path d="M337.067,164.868c0-1.208,0.298-2.377,0.894-3.507c0.595-1.13,1.438-1.993,2.529-2.588 c1.091-0.596,2.31-0.894,3.655-0.894c2.079,0,3.783,0.676,5.111,2.025c1.328,1.351,1.992,3.056,1.992,5.117 c0,2.079-0.67,3.803-2.012,5.17s-3.03,2.051-5.065,2.051c-1.26,0-2.461-0.285-3.604-0.854c-1.144-0.57-2.013-1.404-2.607-2.504 C337.365,167.785,337.067,166.446,337.067,164.868z M340.793,165.062c0,1.363,0.324,2.407,0.971,3.132 c0.647,0.725,1.445,1.087,2.395,1.087c0.948,0,1.744-0.362,2.387-1.087s0.964-1.777,0.964-3.157c0-1.346-0.321-2.381-0.964-3.105 s-1.438-1.087-2.387-1.087c-0.949,0-1.747,0.362-2.395,1.087C341.118,162.655,340.793,163.699,340.793,165.062z" style="stroke-linejoin: round; stroke-linecap: round; fill: rgb(227, 227, 227);"/>
      <path d="M359.049,171.933h-3.636V158.19h3.377v1.954c0.578-0.923,1.098-1.531,1.56-1.824c0.461-0.293,0.985-0.44,1.572-0.44 c0.828,0,1.625,0.229,2.394,0.687l-1.126,3.17c-0.612-0.396-1.182-0.595-1.708-0.595c-0.509,0-0.94,0.14-1.294,0.42 s-0.632,0.787-0.835,1.521c-0.202,0.733-0.304,2.269-0.304,4.606V171.933z" style="stroke-linejoin: round; stroke-linecap: round; fill: rgb(227, 227, 227);"/>
      <path d="M367.083,158.19h3.351v1.877c1.199-1.458,2.627-2.188,4.283-2.188c0.88,0,1.644,0.182,2.29,0.544 c0.647,0.362,1.178,0.91,1.592,1.644c0.604-0.733,1.255-1.281,1.954-1.644c0.698-0.362,1.444-0.544,2.238-0.544 c1.009,0,1.863,0.205,2.562,0.615c0.699,0.41,1.221,1.012,1.566,1.805c0.25,0.587,0.375,1.536,0.375,2.847v8.786h-3.636v-7.854 c0-1.362-0.125-2.242-0.376-2.64c-0.336-0.518-0.854-0.776-1.553-0.776c-0.509,0-0.987,0.155-1.436,0.466 c-0.449,0.311-0.772,0.766-0.971,1.365s-0.298,1.547-0.298,2.84v6.6h-3.636v-7.531c0-1.337-0.064-2.199-0.194-2.588 c-0.129-0.388-0.33-0.677-0.602-0.866s-0.641-0.285-1.106-0.285c-0.561,0-1.065,0.151-1.514,0.453s-0.77,0.737-0.964,1.307 s-0.291,1.515-0.291,2.834v6.677h-3.636V158.19z" style="stroke-linejoin: round; stroke-linecap: round; fill: rgb(227, 227, 227);"/>
      <path d="M395.105,162.384l-3.299-0.596c0.37-1.328,1.009-2.312,1.914-2.95c0.906-0.639,2.252-0.958,4.037-0.958 c1.622,0,2.83,0.192,3.623,0.576c0.794,0.384,1.353,0.871,1.676,1.462c0.324,0.592,0.485,1.676,0.485,3.255l-0.038,4.244 c0,1.208,0.058,2.099,0.174,2.672c0.117,0.573,0.335,1.188,0.654,1.844h-3.598c-0.095-0.241-0.212-0.6-0.35-1.074 c-0.061-0.215-0.104-0.357-0.129-0.427c-0.621,0.604-1.286,1.057-1.993,1.358s-1.462,0.453-2.265,0.453 c-1.414,0-2.529-0.384-3.345-1.151c-0.814-0.768-1.223-1.738-1.223-2.911c0-0.777,0.186-1.469,0.557-2.077s0.891-1.074,1.56-1.397 c0.668-0.323,1.632-0.606,2.892-0.848c1.699-0.319,2.877-0.616,3.532-0.893v-0.362c0-0.699-0.173-1.197-0.518-1.495 c-0.345-0.297-0.996-0.446-1.953-0.446c-0.647,0-1.152,0.128-1.515,0.382C395.623,161.299,395.33,161.745,395.105,162.384z M399.97,165.333c-0.466,0.156-1.203,0.342-2.213,0.557c-1.009,0.216-1.669,0.428-1.979,0.635 c-0.475,0.336-0.712,0.763-0.712,1.28c0,0.51,0.19,0.949,0.57,1.32c0.379,0.371,0.862,0.556,1.449,0.556 c0.655,0,1.28-0.215,1.876-0.646c0.439-0.328,0.729-0.729,0.866-1.203c0.096-0.311,0.143-0.901,0.143-1.773V165.333z" style="stroke-linejoin: round; stroke-linecap: round; fill: rgb(227, 227, 227);"/>
      <path d="M421.098,171.933h-3.636v-7.014c0-1.483-0.078-2.442-0.232-2.879c-0.156-0.436-0.408-0.773-0.758-1.016 c-0.349-0.241-0.77-0.362-1.262-0.362c-0.629,0-1.194,0.173-1.694,0.518c-0.501,0.346-0.844,0.803-1.029,1.372 s-0.278,1.622-0.278,3.157v6.224h-3.636V158.19h3.378v2.02c1.198-1.553,2.708-2.33,4.528-2.33c0.802,0,1.535,0.146,2.2,0.434 c0.664,0.289,1.166,0.658,1.507,1.106c0.341,0.449,0.578,0.958,0.712,1.527s0.2,1.384,0.2,2.445V171.933z" style="stroke-linejoin: round; stroke-linecap: round; fill: rgb(227, 227, 227);"/>
      <path d="M438.241,162.254l-3.584,0.647c-0.121-0.717-0.395-1.256-0.821-1.618c-0.428-0.362-0.981-0.543-1.663-0.543 c-0.905,0-1.628,0.313-2.167,0.938c-0.54,0.626-0.809,1.672-0.809,3.138c0,1.631,0.273,2.782,0.821,3.455s1.283,1.01,2.206,1.01 c0.69,0,1.255-0.196,1.695-0.589c0.439-0.393,0.75-1.067,0.932-2.025l3.571,0.608c-0.371,1.639-1.083,2.877-2.136,3.714 c-1.052,0.837-2.463,1.255-4.23,1.255c-2.011,0-3.612-0.634-4.808-1.902c-1.194-1.268-1.792-3.023-1.792-5.266 c0-2.27,0.6-4.035,1.799-5.299s2.82-1.896,4.865-1.896c1.674,0,3.004,0.36,3.992,1.081 C437.1,159.682,437.809,160.778,438.241,162.254z" style="stroke-linejoin: round; stroke-linecap: round; fill: rgb(227, 227, 227);"/>
      <path d="M450.427,167.56l3.623,0.607c-0.465,1.329-1.201,2.34-2.206,3.034c-1.005,0.695-2.262,1.042-3.771,1.042 c-2.39,0-4.158-0.78-5.306-2.342c-0.905-1.251-1.358-2.829-1.358-4.736c0-2.277,0.596-4.061,1.786-5.351 c1.19-1.289,2.695-1.935,4.516-1.935c2.045,0,3.657,0.676,4.84,2.025c1.182,1.351,1.746,3.418,1.694,6.205h-9.109 c0.026,1.078,0.319,1.917,0.88,2.517s1.26,0.899,2.097,0.899c0.569,0,1.048-0.156,1.437-0.467 C449.936,168.749,450.229,168.249,450.427,167.56z M450.634,163.884c-0.025-1.052-0.297-1.852-0.814-2.399 s-1.147-0.822-1.89-0.822c-0.794,0-1.449,0.289-1.967,0.867s-0.771,1.363-0.763,2.354H450.634z" style="stroke-linejoin: round; stroke-linecap: round; fill: rgb(227, 227, 227);"/>
      <path d="M458.59,168.297h3.636v2.601c0,1.053-0.09,1.883-0.271,2.491c-0.182,0.607-0.524,1.153-1.028,1.637 c-0.505,0.482-1.146,0.862-1.922,1.139l-0.712-1.501c0.733-0.242,1.256-0.574,1.566-0.996c0.311-0.423,0.474-1.001,0.491-1.734 h-1.76V168.297z" style="stroke-linejoin: round; stroke-linecap: round; fill: rgb(227, 227, 227);"/>
      <path d="M473.431,171.933v-18.969h6.146c2.329,0,3.848,0.095,4.555,0.284c1.087,0.284,1.997,0.903,2.73,1.856 c0.732,0.954,1.1,2.186,1.1,3.694c0,1.165-0.212,2.144-0.634,2.938c-0.423,0.794-0.96,1.417-1.611,1.87 c-0.651,0.452-1.313,0.752-1.986,0.898c-0.914,0.182-2.238,0.272-3.972,0.272h-2.498v7.155H473.431z M477.261,156.173v5.383h2.097 c1.509,0,2.519-0.1,3.027-0.298s0.908-0.509,1.197-0.932s0.434-0.914,0.434-1.476c0-0.689-0.203-1.259-0.608-1.708 c-0.405-0.448-0.919-0.729-1.54-0.841c-0.457-0.086-1.376-0.129-2.756-0.129H477.261z" style="stroke-linejoin: round; stroke-linecap: round; fill: rgb(227, 227, 227);"/>
      <path d="M495.271,162.384l-3.299-0.596c0.37-1.328,1.009-2.312,1.914-2.95c0.906-0.639,2.252-0.958,4.037-0.958 c1.622,0,2.83,0.192,3.623,0.576c0.794,0.384,1.353,0.871,1.676,1.462c0.324,0.592,0.485,1.676,0.485,3.255l-0.038,4.244 c0,1.208,0.058,2.099,0.174,2.672c0.117,0.573,0.335,1.188,0.654,1.844H500.9c-0.095-0.241-0.212-0.6-0.35-1.074 c-0.061-0.215-0.104-0.357-0.129-0.427c-0.621,0.604-1.286,1.057-1.993,1.358s-1.462,0.453-2.265,0.453 c-1.414,0-2.529-0.384-3.345-1.151c-0.814-0.768-1.223-1.738-1.223-2.911c0-0.777,0.186-1.469,0.557-2.077s0.891-1.074,1.56-1.397 c0.668-0.323,1.632-0.606,2.892-0.848c1.699-0.319,2.877-0.616,3.532-0.893v-0.362c0-0.699-0.173-1.197-0.518-1.495 c-0.345-0.297-0.996-0.446-1.953-0.446c-0.647,0-1.152,0.128-1.515,0.382C495.789,161.299,495.496,161.745,495.271,162.384z M500.136,165.333c-0.466,0.156-1.203,0.342-2.213,0.557c-1.009,0.216-1.669,0.428-1.979,0.635 c-0.475,0.336-0.712,0.763-0.712,1.28c0,0.51,0.19,0.949,0.57,1.32c0.379,0.371,0.862,0.556,1.449,0.556 c0.655,0,1.28-0.215,1.876-0.646c0.439-0.328,0.729-0.729,0.866-1.203c0.096-0.311,0.143-0.901,0.143-1.773V165.333z" style="stroke-linejoin: round; stroke-linecap: round; fill: rgb(227, 227, 227);"/>
      <path d="M512.246,171.933h-3.636V158.19h3.377v1.954c0.578-0.923,1.098-1.531,1.56-1.824c0.461-0.293,0.985-0.44,1.572-0.44 c0.828,0,1.625,0.229,2.394,0.687l-1.126,3.17c-0.612-0.396-1.182-0.595-1.708-0.595c-0.509,0-0.94,0.14-1.294,0.42 s-0.632,0.787-0.835,1.521c-0.202,0.733-0.304,2.269-0.304,4.606V171.933z" style="stroke-linejoin: round; stroke-linecap: round; fill: rgb(227, 227, 227);"/>
      <path d="M526.85,158.19v2.898h-2.484v5.539c0,1.121,0.024,1.774,0.071,1.96c0.048,0.186,0.155,0.339,0.324,0.459 c0.168,0.121,0.373,0.182,0.614,0.182c0.336,0,0.823-0.116,1.462-0.35l0.311,2.821c-0.846,0.361-1.803,0.543-2.872,0.543 c-0.656,0-1.247-0.11-1.773-0.33c-0.525-0.22-0.912-0.505-1.157-0.854c-0.246-0.35-0.417-0.822-0.512-1.417 c-0.077-0.423-0.116-1.276-0.116-2.563v-5.991h-1.669v-2.898h1.669v-2.729l3.648-2.122v4.852H526.85z" style="stroke-linejoin: round; stroke-linecap: round; fill: rgb(227, 227, 227);"/>
      <path d="M543.345,171.933h-3.636v-7.014c0-1.483-0.078-2.442-0.232-2.879c-0.156-0.436-0.408-0.773-0.758-1.016 c-0.349-0.241-0.77-0.362-1.262-0.362c-0.629,0-1.194,0.173-1.694,0.518c-0.501,0.346-0.844,0.803-1.029,1.372 s-0.278,1.622-0.278,3.157v6.224h-3.636V158.19h3.378v2.02c1.198-1.553,2.708-2.33,4.528-2.33c0.802,0,1.535,0.146,2.2,0.434 c0.664,0.289,1.166,0.658,1.507,1.106c0.341,0.449,0.578,0.958,0.712,1.527s0.2,1.384,0.2,2.445V171.933z" style="stroke-linejoin: round; stroke-linecap: round; fill: rgb(227, 227, 227);"/>
      <path d="M556.463,167.56l3.623,0.607c-0.465,1.329-1.201,2.34-2.206,3.034c-1.005,0.695-2.262,1.042-3.771,1.042 c-2.39,0-4.158-0.78-5.306-2.342c-0.905-1.251-1.358-2.829-1.358-4.736c0-2.277,0.596-4.061,1.786-5.351 c1.19-1.289,2.695-1.935,4.516-1.935c2.045,0,3.657,0.676,4.84,2.025c1.182,1.351,1.746,3.418,1.694,6.205h-9.109 c0.026,1.078,0.319,1.917,0.88,2.517s1.26,0.899,2.097,0.899c0.569,0,1.048-0.156,1.437-0.467 C555.972,168.749,556.265,168.249,556.463,167.56z M556.67,163.884c-0.025-1.052-0.297-1.852-0.814-2.399s-1.147-0.822-1.89-0.822 c-0.794,0-1.449,0.289-1.967,0.867s-0.771,1.363-0.763,2.354H556.67z" style="stroke-linejoin: round; stroke-linecap: round; fill: rgb(227, 227, 227);"/>
      <path d="M568.198,171.933h-3.636V158.19h3.377v1.954c0.578-0.923,1.098-1.531,1.56-1.824c0.461-0.293,0.985-0.44,1.572-0.44 c0.828,0,1.625,0.229,2.394,0.687l-1.126,3.17c-0.612-0.396-1.182-0.595-1.708-0.595c-0.509,0-0.94,0.14-1.294,0.42 s-0.632,0.787-0.835,1.521c-0.202,0.733-0.304,2.269-0.304,4.606V171.933z" style="stroke-linejoin: round; stroke-linecap: round; fill: rgb(227, 227, 227);"/>
      <path d="M575.221,168.012l3.648-0.556c0.156,0.707,0.471,1.244,0.945,1.61c0.474,0.367,1.139,0.55,1.992,0.55 c0.94,0,1.647-0.172,2.122-0.518c0.319-0.241,0.479-0.564,0.479-0.971c0-0.275-0.087-0.504-0.26-0.686 c-0.181-0.172-0.586-0.332-1.216-0.479c-2.933-0.646-4.792-1.237-5.577-1.772c-1.087-0.742-1.63-1.772-1.63-3.093 c0-1.19,0.47-2.191,1.41-3.002s2.398-1.217,4.374-1.217c1.88,0,3.277,0.307,4.191,0.919c0.915,0.613,1.545,1.519,1.89,2.718 l-3.429,0.634c-0.147-0.535-0.425-0.944-0.835-1.229c-0.41-0.284-0.994-0.427-1.753-0.427c-0.958,0-1.644,0.134-2.058,0.401 c-0.276,0.189-0.414,0.436-0.414,0.737c0,0.259,0.121,0.479,0.362,0.66c0.328,0.241,1.46,0.582,3.396,1.022 c1.937,0.439,3.289,0.979,4.057,1.617c0.759,0.646,1.139,1.548,1.139,2.704c0,1.26-0.526,2.342-1.578,3.248 c-1.053,0.905-2.61,1.358-4.672,1.358c-1.872,0-3.354-0.38-4.444-1.139C576.271,170.346,575.557,169.314,575.221,168.012z" style="stroke-linejoin: round; stroke-linecap: round; fill: rgb(227, 227, 227);"/>
      <path d="M596.336,152.964v6.974c1.173-1.371,2.574-2.058,4.205-2.058c0.837,0,1.592,0.156,2.265,0.467s1.18,0.707,1.521,1.189 c0.34,0.483,0.573,1.019,0.698,1.605c0.125,0.586,0.188,1.496,0.188,2.729v8.062h-3.636v-7.259c0-1.44-0.069-2.355-0.207-2.743 c-0.138-0.389-0.382-0.696-0.731-0.926c-0.349-0.229-0.787-0.343-1.313-0.343c-0.604,0-1.143,0.147-1.617,0.44 s-0.821,0.735-1.041,1.326c-0.221,0.591-0.33,1.464-0.33,2.62v6.884H592.7v-18.969H596.336z" style="stroke-linejoin: round; stroke-linecap: round; fill: rgb(227, 227, 227);"/>
      <path d="M610.373,156.327v-3.363h3.636v3.363H610.373z M610.373,171.933V158.19h3.636v13.742H610.373z" style="stroke-linejoin: round; stroke-linecap: round; fill: rgb(227, 227, 227);"/>
      <path d="M619.104,158.19h3.39v2.02c0.44-0.69,1.035-1.251,1.786-1.683c0.75-0.432,1.583-0.647,2.497-0.647 c1.596,0,2.95,0.626,4.063,1.877c1.112,1.251,1.669,2.993,1.669,5.228c0,2.295-0.562,4.078-1.683,5.351s-2.479,1.908-4.076,1.908 c-0.759,0-1.446-0.151-2.063-0.453s-1.266-0.819-1.947-1.553v6.923h-3.636V158.19z M622.701,164.829 c0,1.544,0.307,2.685,0.919,3.422c0.612,0.738,1.358,1.106,2.238,1.106c0.846,0,1.549-0.338,2.109-1.016 c0.561-0.677,0.841-1.787,0.841-3.332c0-1.44-0.289-2.51-0.866-3.209c-0.578-0.698-1.295-1.048-2.148-1.048 c-0.889,0-1.626,0.343-2.213,1.028C622.994,162.468,622.701,163.483,622.701,164.829z" style="stroke-linejoin: round; stroke-linecap: round; fill: rgb(227, 227, 227);"/>
      <path d="M636.868,171.933v-3.636h3.636v3.636H636.868z" style="stroke-linejoin: round; stroke-linecap: round; fill: rgb(227, 227, 227);"/>
    </g>
  </g>
</svg>